<svg xmlns="http://www.w3.org/2000/svg"
    width="300" height="300" viewBox="0 0 161.000000 186.000000"
    preserveAspectRatio="xMinYMin meet">


<g transform="translate(0.000000,186.000000) scale(0.100000,-0.100000)"
        fill="#333333" stroke="none">
<path d="M723 1824 c-17 -9 -58 -44 -91 -78 -46 -48 -63 -74 -76 -119 -24 -82
-35 -185 -36 -318 l0 -117 35 -31 c46 -40 44 -46 -5 -21 l-41 21 -94 -87 c-74
-70 -96 -96 -105 -130 -11 -40 -14 -42 -58 -47 -67 -7 -85 -33 -77 -111 3 -34
12 -192 20 -352 14 -277 21 -325 51 -363 1 -1 252 -3 556 -3 l553 0 24 32 c24
30 25 42 42 328 23 376 23 436 4 452 -8 6 -32 14 -54 17 -35 5 -42 10 -52 40
-6 19 -49 74 -98 126 -48 51 -94 102 -103 115 l-15 22 -38 -30 c-58 -46 -70
-36 -17 14 l46 44 -12 128 c-24 258 -89 421 -186 465 -50 23 -130 24 -173 3z
m128 -73 c24 -15 60 -45 79 -66 33 -36 34 -37 10 -32 -90 21 -173 28 -241 18
-41 -5 -75 -8 -77 -7 -8 8 64 78 97 96 50 27 80 25 132 -9z m52 -105 c33 -8
64 -19 70 -25 16 -16 15 -168 -2 -256 -12 -59 -24 -84 -75 -155 -58 -82 -83
-109 -99 -110 -14 0 5 115 21 127 13 11 8 13 -33 13 -38 0 -46 -3 -37 -12 7
-7 12 -39 12 -72 l0 -59 -22 19 c-32 29 -116 161 -128 202 -18 60 -25 307 -10
317 43 26 212 32 303 11z m-326 -223 c-3 -10 -5 -4 -5 12 0 17 2 24 5 18 2 -7
2 -21 0 -30z m10 -55 c-3 -7 -5 -2 -5 12 0 14 2 19 5 13 2 -7 2 -19 0 -25z
m314 -212 c-6 -7 -31 -53 -56 -102 -25 -49 -45 -80 -45 -68 0 12 -11 38 -25
58 l-24 36 30 0 c22 0 43 12 77 45 47 44 65 58 43 31z m-250 -95 c43 -9 43 -9
9 -9 -19 -1 -48 5 -65 13 -17 8 -21 12 -9 10 12 -3 42 -10 65 -14z m166 -153
c-3 -8 -6 -5 -6 6 -1 11 2 17 5 13 3 -3 4 -12 1 -19z m592 -51 c10 -13 -3
-336 -27 -637 l-7 -95 -555 -2 c-318 -2 -561 1 -569 6 -16 10 -22 81 -41 478
-6 134 -8 247 -5 253 4 6 213 10 599 10 484 0 596 -2 605 -13z m-1076 -774
c-13 -2 -33 -2 -45 0 -13 2 -3 4 22 4 25 0 35 -2 23 -4z m990 0 c-13 -2 -33
-2 -45 0 -13 2 -3 4 22 4 25 0 35 -2 23 -4z"/>
<path d="M633 1580 c-14 -6 -23 -18 -23 -31 0 -17 4 -20 24 -15 15 4 40 -3 71
-19 37 -20 46 -22 41 -10 -3 9 -6 25 -6 36 0 13 -12 25 -35 35 -39 16 -42 16
-72 4z"/>
<path d="M843 1568 c-13 -6 -23 -14 -24 -17 0 -3 -2 -18 -3 -33 -2 -26 -1 -26
32 -12 19 8 52 14 73 14 27 0 39 4 39 14 0 40 -66 59 -117 34z"/>
<path d="M635 1464 l-30 -14 40 5 c22 3 48 5 58 5 10 0 15 5 12 10 -9 14 -45
12 -80 -6z"/>
<path d="M830 1460 c-11 -7 -3 -10 30 -11 25 -1 51 -1 58 0 6 1 12 -3 12 -9 0
-5 5 -10 10 -10 22 0 8 19 -21 29 -39 13 -69 14 -89 1z"/>
<path d="M874 1355 c11 -8 24 -15 28 -15 5 0 4 -9 -2 -20 -13 -25 -68 -28 -77
-4 -3 9 0 20 7 24 7 4 -10 7 -39 7 -28 0 -48 -3 -46 -5 11 -11 -19 -32 -45
-32 -27 0 -46 22 -34 41 3 5 -4 9 -16 9 -34 0 -36 -29 -4 -87 16 -30 35 -59
42 -65 14 -13 -20 68 -37 85 -6 6 -11 15 -11 21 0 5 6 2 13 -8 27 -37 213 -51
251 -18 20 17 20 17 4 -8 -32 -47 -57 -90 -54 -90 10 0 68 81 81 113 l15 35
-48 16 c-40 13 -44 13 -28 1z m-76 -63 c2 -7 -6 -12 -17 -12 -21 0 -27 11 -14
24 9 9 26 2 31 -12z"/>
</g>
</svg>
